<svg width="808.0800048828124px" height="125.27998657226563px" xmlns="http://www.w3.org/2000/svg" viewBox="-154.04000244140622 12.360006713867186 808.0800048828124 125.27998657226563" style="background:#fff" preserveAspectRatio="xMidYMid"><defs><filter id="editing-marble" x="-100%" y="-100%" width="300%" height="300%"><feFlood flood-color="#b44607" result="flood-1"></feFlood><feComposite operator="in" in="flood-1" in2="SourceAlpha" result="flood-2"></feComposite><feTurbulence baseFrequency="0.07" type="fractalNoise" numOctaves="1" seed="2" result="bs-1"></feTurbulence><feGaussianBlur stdDeviation="1" in="flood-2" result="bs-2"></feGaussianBlur><feDisplacementMap scale="110" in="bs-2" in2="bs-1" result="bs-3"></feDisplacementMap><feComposite operator="in" in="bs-3" in2="SourceAlpha" result="texture"></feComposite><feMerge><feMergeNode in="SourceGraphic"></feMergeNode><feMergeNode in="texture"></feMergeNode></feMerge></filter></defs><g filter="url(#editing-marble)"><g transform="translate(-38.50998044013977, 97.98000144958496)"><path d="M14.53-2.11L14.53-43.52L3.52-43.52L2.50-35.07L1.28-35.58L1.92-43.52L1.86-43.52L1.98-44.03L2.05-44.80L2.18-44.74L2.18-44.80L31.23-44.80L32.06-35.58L30.78-35.07L29.76-43.52L18.56-43.52L18.56-1.22L23.23-0.96L23.23-0.96Q23.23-0.90 23.17 0L23.17 0L10.37 0.06L10.37 0.06Q10.37-0.51 10.43-0.83L10.43-0.83L13.76-1.28L13.76-1.28Q14.40-1.34 14.53-2.11L14.53-2.11ZM48.77 0L35.90 0.06L35.97-0.83L39.30-1.28L39.30-1.28Q39.94-1.34 40.06-2.11L40.06-2.11L40.13-2.11L40.13-42.56L40.06-42.56L40.06-42.56Q39.94-43.39 39.30-43.46L39.30-43.46L35.97-43.78L35.90-44.74L48.77-44.80L48.77-44.80Q48.77-44.74 48.83-43.84L48.83-43.84L44.48-43.46L44.48-1.22L48.83-0.96L48.83-0.96Q48.83-0.90 48.77 0L48.77 0ZM56.64-43.46L53.25-43.84L53.31-44.80L61.76-44.80L77.06-12.35L92.10-44.80L100.54-44.80L100.54-44.80Q100.54-44.67 100.61-44.35L100.61-44.35L100.61-44.35Q100.67-44.03 100.61-43.84L100.61-43.84L97.22-43.46L97.22-43.46Q96.58-43.39 96.45-42.62L96.45-42.62L96.45-1.22L101.18-0.96L101.18-0.96Q101.18-0.90 101.12 0L101.12 0L88.26 0.06L88.32-0.83L91.65-1.28L91.65-1.28Q92.29-1.34 92.42-2.05L92.42-2.05L92.42-42.50L77.82-10.94L76.54-8.38L75.07-8.38L58.88-42.56L58.88-1.34L66.18-0.96L66.18-0.96Q66.18-0.90 66.11 0L66.11 0L53.25 0.06L53.31-0.83L56.64-1.28L56.64-1.28Q57.28-1.34 57.41-2.11L57.41-2.11L57.41-42.62L57.41-42.62Q57.28-43.39 56.64-43.46L56.64-43.46ZM105.28-22.27L105.28-22.27L105.28-22.27Q105.28-32.83 110.69-39.10L110.69-39.10L110.69-39.10Q116.10-45.38 124.16-45.38L124.16-45.38L124.16-45.38Q143.04-45.38 143.04-22.27L143.04-22.27L143.04-22.27Q143.04-11.65 137.66-5.54L137.66-5.54L137.66-5.54Q132.29 0.58 124.16 0.58L124.16 0.58L124.16 0.58Q105.28 0.58 105.28-22.27ZM109.63-22.40L109.63-22.40L109.63-22.40Q109.63-0.70 124.16-0.70L124.16-0.70L124.16-0.70Q130.43-0.70 134.56-6.46L134.56-6.46L134.56-6.46Q138.69-12.22 138.69-22.40L138.69-22.40L138.69-22.40Q138.69-44.10 124.16-44.10L124.16-44.10L124.16-44.10Q117.95-44.10 113.79-38.27L113.79-38.27L113.79-38.27Q109.63-32.45 109.63-22.40ZM158.27-2.11L158.27-43.52L147.26-43.52L146.24-35.07L145.02-35.58L145.66-43.52L145.60-43.52L145.73-44.03L145.79-44.80L145.92-44.74L145.92-44.80L174.98-44.80L175.81-35.58L174.53-35.07L173.50-43.52L162.30-43.52L162.30-1.22L166.98-0.96L166.98-0.96Q166.98-0.90 166.91 0L166.91 0L154.11 0.06L154.11 0.06Q154.11-0.51 154.18-0.83L154.18-0.83L157.50-1.28L157.50-1.28Q158.14-1.34 158.27-2.11L158.27-2.11ZM204.86-44.74L217.02-44.80L217.02-44.80Q217.02-44.74 217.09-43.84L217.09-43.84L213.06-43.39L213.06-1.22L217.73-0.96L217.73-0.96Q217.73-0.90 217.66 0L217.66 0L204.86 0.06L204.86 0.06Q204.86-0.51 204.93-0.83L204.93-0.83L208.26-1.28L208.26-1.28Q208.90-1.34 209.02-2.11L209.02-2.11L209.02-21.57L187.20-21.57L187.20-1.22L191.94-0.96L191.94-0.96Q191.94-0.90 191.87 0L191.87 0L179.01 0.06L179.07-0.83L182.40-1.28L182.40-1.28Q183.04-1.34 183.17-2.05L183.17-2.05L183.17-42.62L183.17-42.62Q183.04-43.39 182.40-43.46L182.40-43.46L179.07-43.78L179.01-44.74L191.87-44.80L191.87-44.80Q191.87-44.74 191.94-43.84L191.94-43.84L187.20-43.39L187.20-22.85L209.02-22.85L209.02-42.56L209.02-42.56Q208.90-43.39 208.26-43.46L208.26-43.46L204.93-43.78L204.93-43.78Q204.86-44.16 204.86-44.74L204.86-44.74ZM247.55-44.74L260.03-44.80L260.03-44.80Q260.03-44.74 260.10-43.84L260.10-43.84L256.45-43.52L242.75-15.10L242.75-1.22L247.42-0.96L247.42-0.96Q247.42-0.90 247.36 0L247.36 0L234.56 0.06L234.56 0.06Q234.56-0.51 234.62-0.83L234.62-0.83L237.95-1.28L237.95-1.28Q238.59-1.34 238.72-2.11L238.72-2.11L238.72-15.10L224.32-43.20L224.32-43.20Q224.06-43.39 223.81-43.52L223.81-43.52L221.12-43.78L221.12-43.78Q221.06-44.16 221.06-44.74L221.06-44.74L233.98-44.80L233.98-44.80Q233.98-44.74 234.05-43.84L234.05-43.84L228.80-43.39L242.05-16.19L254.02-42.43L254.02-42.43Q254.02-43.20 253.44-43.26L253.44-43.26L247.62-43.78L247.62-43.78Q247.55-44.16 247.55-44.74L247.55-44.74ZM308.61-44.74L320.77-44.80L320.77-44.80Q320.77-44.74 320.83-43.84L320.83-43.84L316.80-43.39L316.80-1.22L321.47-0.96L321.47-0.96Q321.47-0.90 321.41 0L321.41 0L308.61 0.06L308.61 0.06Q308.61-0.51 308.67-0.83L308.67-0.83L312.00-1.28L312.00-1.28Q312.64-1.34 312.77-2.11L312.77-2.11L312.77-21.57L290.94-21.57L290.94-1.22L295.68-0.96L295.68-0.96Q295.68-0.90 295.62 0L295.62 0L282.75 0.06L282.82-0.83L286.14-1.28L286.14-1.28Q286.78-1.34 286.91-2.05L286.91-2.05L286.91-42.62L286.91-42.62Q286.78-43.39 286.14-43.46L286.14-43.46L282.82-43.78L282.75-44.74L295.62-44.80L295.62-44.80Q295.62-44.74 295.68-43.84L295.68-43.84L290.94-43.39L290.94-22.85L312.77-22.85L312.77-42.56L312.77-42.56Q312.64-43.39 312.00-43.46L312.00-43.46L308.67-43.78L308.67-43.78Q308.61-44.16 308.61-44.74L308.61-44.74ZM336.58 0L323.71 0.06L323.78-0.83L327.10-1.28L327.10-1.28Q327.55-1.34 327.87-2.11L327.87-2.11L341.70-44.80L345.92-44.80L360.64-1.22L365.06-0.96L365.06-0.96Q365.06-0.90 364.99 0L364.99 0L352.19 0.06L352.19 0.06Q352.19-0.51 352.26-0.83L352.26-0.83L355.58-1.28L355.58-1.28Q356.10-1.34 356.10-2.05L356.10-2.05L352.58-12.48L332.61-12.48L329.22-1.34L336.64-0.96L336.64-0.96Q336.64-0.90 336.58 0L336.58 0ZM352.13-13.76L342.14-43.58L332.99-13.76L352.13-13.76ZM367.55-44.74L380.42-44.80L380.42-44.80Q380.42-44.74 380.48-43.84L380.48-43.84L376.06-43.46L376.06-1.28L393.73-1.28L395.01-11.52L396.22-11.20L395.26 0L380.42 0L367.55 0.06L367.62-0.83L370.94-1.28L370.94-1.28Q371.58-1.34 371.71-2.11L371.71-2.11L371.71-42.62L371.71-42.62Q371.58-43.39 370.94-43.46L370.94-43.46L367.62-43.78L367.55-44.74ZM412.67-1.22L412.67-1.22L412.67-1.22Q417.41-1.22 420.99-4L420.99-4L420.99-4Q424.58-6.78 424.58-12.48L424.58-12.48L424.58-12.48Q424.58-15.04 423.33-16.86L423.33-16.86L423.33-16.86Q422.08-18.69 420.03-19.68L420.03-19.68L420.03-19.68Q417.98-20.67 415.55-21.41L415.55-21.41L415.55-21.41Q413.12-22.14 410.69-22.98L410.69-22.98L410.69-22.98Q408.26-23.81 406.21-24.96L406.21-24.96L406.21-24.96Q404.16-26.11 402.91-28.22L402.91-28.22L402.91-28.22Q401.66-30.34 401.66-33.28L401.66-33.28L401.66-33.28Q401.66-38.40 405.18-41.66L405.18-41.66L405.18-41.66Q408.70-44.93 414.59-44.93L414.59-44.93L414.59-44.93Q420.48-44.93 425.86-43.58L425.86-43.58L426.56-35.58L425.34-35.07L424.70-40.13L424.70-40.13Q419.97-43.65 415.81-43.65L415.81-43.65L415.81-43.65Q411.65-43.65 408.83-41.12L408.83-41.12L408.83-41.12Q406.02-38.59 406.02-33.54L406.02-33.54L406.02-33.54Q406.02-30.59 408.38-28.86L408.38-28.86L408.38-28.86Q410.75-27.14 414.11-26.18L414.11-26.18L414.11-26.18Q417.47-25.22 420.83-24L420.83-24L420.83-24Q424.19-22.78 426.56-19.90L426.56-19.90L426.56-19.90Q428.93-17.02 428.93-12.42L428.93-12.42L428.93-12.42Q428.93-6.21 424.51-3.07L424.51-3.07L424.51-3.07Q420.10 0.06 412.86 0.06L412.86 0.06L412.86 0.06Q405.63 0.06 400.32-3.84L400.32-3.84L400.38-10.62L401.60-10.94L401.73-7.30L401.73-7.30Q403.46-4.86 406.46-3.04L406.46-3.04L406.46-3.04Q409.47-1.22 412.67-1.22ZM444.29-2.11L444.29-43.52L433.28-43.52L432.26-35.07L431.04-35.58L431.68-43.52L431.62-43.52L431.74-44.03L431.81-44.80L431.94-44.74L431.94-44.80L460.99-44.80L461.82-35.58L460.54-35.07L459.52-43.52L448.32-43.52L448.32-1.22L452.99-0.96L452.99-0.96Q452.99-0.90 452.93 0L452.93 0L440.13 0.06L440.13 0.06Q440.13-0.51 440.19-0.83L440.19-0.83L443.52-1.28L443.52-1.28Q444.16-1.34 444.29-2.11L444.29-2.11ZM468.80-43.46L465.41-43.84L465.47-44.80L492.86-44.80L492.80-44.61L493.63-35.58L492.35-35.07L491.33-43.52L473.92-43.52L473.92-22.85L489.22-22.85L489.22-22.85Q489.54-22.78 489.79-23.01L489.79-23.01L489.79-23.01Q490.05-23.23 490.05-23.62L490.05-23.62L490.30-28.03L491.33-28.16L491.33-17.22L491.33-17.22Q491.26-17.22 490.37-17.15L490.37-17.15L490.11-21.57L473.92-21.57L473.92-1.28L493.06-1.28L494.27-11.52L495.49-11.20L494.53 0L478.27 0L465.41 0.06L465.47-0.83L468.80-1.28L468.80-1.28Q469.44-1.34 469.57-2.11L469.57-2.11L469.57-42.62L469.57-42.62Q469.44-43.39 468.80-43.46L468.80-43.46ZM510.27 0L497.41 0.06L497.47-0.83L500.80-1.28L500.80-1.28Q501.25-1.34 501.57-2.11L501.57-2.11L515.39-44.80L519.62-44.80L534.34-1.22L538.75-0.96L538.75-0.96Q538.75-0.90 538.69 0L538.69 0L525.89 0.06L525.89 0.06Q525.89-0.51 525.95-0.83L525.95-0.83L529.28-1.28L529.28-1.28Q529.79-1.34 529.79-2.05L529.79-2.05L526.27-12.48L506.30-12.48L502.91-1.34L510.34-0.96L510.34-0.96Q510.34-0.90 510.27 0L510.27 0ZM525.82-13.76L515.84-43.58L506.69-13.76L525.82-13.76ZM544.38-43.46L540.99-43.84L541.06-44.80L556.67-44.80L556.67-44.80Q565.31-44.80 570.53-39.78L570.53-39.78L570.53-39.78Q575.74-34.75 575.74-23.42L575.74-23.42L575.74-23.42Q575.74-12.22 572.10-6.66L572.10-6.66L572.10-6.66Q568.90-1.79 562.11-0.51L562.11-0.51L562.11-0.51Q559.10 0 555.07 0L555.07 0L553.86 0L540.99 0.06L541.06-0.83L544.38-1.28L544.38-1.28Q545.02-1.34 545.15-2.11L545.15-2.11L545.15-42.56L545.15-42.56Q545.02-43.39 544.38-43.46L544.38-43.46ZM556.35-43.84L556.35-43.84L549.50-43.84L549.50-0.96L554.75-0.96L554.75-0.96Q557.82-0.96 559.97-1.31L559.97-1.31L559.97-1.31Q562.11-1.66 564.45-2.98L564.45-2.98L564.45-2.98Q566.78-4.29 568.13-6.59L568.13-6.59L568.13-6.59Q571.39-12.03 571.39-23.10L571.39-23.10L571.39-23.10Q571.39-34.62 566.85-39.42L566.85-39.42L566.85-39.42Q562.69-43.84 556.35-43.84Z" fill="#e49c49"></path></g></g><style>text {
  font-size: 64px;
  font-family: Arial Black;
  dominant-baseline: central;
  text-anchor: middle;
}</style></svg>